<mxfile host="app.diagrams.net" modified="2023-12-28T04:09:20.824Z" agent="Mozilla/5.0 (Windows NT 10.0; Win64; x64) AppleWebKit/537.36 (KHTML, like Gecko) Chrome/120.0.0.0 Safari/537.36" etag="06XrUSBUEmXRSQ_ngLpd" version="22.1.12" type="device">
  <diagram name="Page-1" id="jB1H6zsLwHQcwPxNzkyy">
    <mxGraphModel dx="868" dy="564" grid="1" gridSize="10" guides="1" tooltips="1" connect="1" arrows="1" fold="1" page="1" pageScale="1" pageWidth="850" pageHeight="1100" math="0" shadow="0">
      <root>
        <mxCell id="0" />
        <mxCell id="1" parent="0" />
        <mxCell id="oPyfRD8SSdfk53VI7rpG-62" value="" style="group;rounded=0;" parent="1" vertex="1" connectable="0">
          <mxGeometry x="108" y="60" width="770.5" height="530" as="geometry" />
        </mxCell>
        <mxCell id="oPyfRD8SSdfk53VI7rpG-43" value="" style="rounded=0;whiteSpace=wrap;html=1;fillColor=none;strokeColor=#0000CC;movable=1;resizable=1;rotatable=1;deletable=1;editable=1;locked=0;connectable=1;container=0;" parent="oPyfRD8SSdfk53VI7rpG-62" vertex="1">
          <mxGeometry x="80" y="302" width="170" height="200" as="geometry" />
        </mxCell>
        <mxCell id="oPyfRD8SSdfk53VI7rpG-2" value="" style="rounded=0;whiteSpace=wrap;html=1;strokeWidth=4;movable=1;resizable=1;rotatable=1;deletable=1;editable=1;locked=0;connectable=1;container=0;" parent="oPyfRD8SSdfk53VI7rpG-62" vertex="1">
          <mxGeometry width="760" height="530" as="geometry" />
        </mxCell>
        <mxCell id="oPyfRD8SSdfk53VI7rpG-9" value="" style="rounded=0;whiteSpace=wrap;html=1;dashed=1;dashPattern=1 1;strokeColor=default;fillColor=none;movable=1;resizable=1;rotatable=1;deletable=1;editable=1;locked=0;connectable=1;container=0;" parent="oPyfRD8SSdfk53VI7rpG-62" vertex="1">
          <mxGeometry x="67" y="63" width="200" height="460" as="geometry" />
        </mxCell>
        <mxCell id="oPyfRD8SSdfk53VI7rpG-3" value="" style="rounded=0;whiteSpace=wrap;html=1;strokeColor=#80FF00;movable=1;resizable=1;rotatable=1;deletable=1;editable=1;locked=0;connectable=1;container=0;" parent="oPyfRD8SSdfk53VI7rpG-62" vertex="1">
          <mxGeometry x="40" y="100" width="610" height="410" as="geometry" />
        </mxCell>
        <mxCell id="oPyfRD8SSdfk53VI7rpG-8" value="" style="rounded=0;whiteSpace=wrap;html=1;dashed=1;dashPattern=1 1;strokeColor=#0000CC;fillColor=none;movable=1;resizable=1;rotatable=1;deletable=1;editable=1;locked=0;connectable=1;container=0;" parent="oPyfRD8SSdfk53VI7rpG-62" vertex="1">
          <mxGeometry x="409" y="62" width="200" height="461" as="geometry" />
        </mxCell>
        <mxCell id="oPyfRD8SSdfk53VI7rpG-12" value="Public subnet" style="points=[[0,0],[0.25,0],[0.5,0],[0.75,0],[1,0],[1,0.25],[1,0.5],[1,0.75],[1,1],[0.75,1],[0.5,1],[0.25,1],[0,1],[0,0.75],[0,0.5],[0,0.25]];outlineConnect=0;gradientColor=none;html=1;whiteSpace=wrap;fontSize=12;fontStyle=0;container=0;pointerEvents=0;collapsible=0;recursiveResize=0;shape=mxgraph.aws4.group;grIcon=mxgraph.aws4.group_security_group;grStroke=0;strokeColor=#248814;fillColor=#E9F3E6;verticalAlign=top;align=left;spacingLeft=30;fontColor=#248814;dashed=0;movable=1;resizable=1;rotatable=1;deletable=1;editable=1;locked=0;connectable=1;strokeWidth=5;rounded=0;" parent="oPyfRD8SSdfk53VI7rpG-62" vertex="1">
          <mxGeometry x="425" y="132" width="170" height="150" as="geometry" />
        </mxCell>
        <mxCell id="oPyfRD8SSdfk53VI7rpG-14" value="Public subnet" style="points=[[0,0],[0.25,0],[0.5,0],[0.75,0],[1,0],[1,0.25],[1,0.5],[1,0.75],[1,1],[0.75,1],[0.5,1],[0.25,1],[0,1],[0,0.75],[0,0.5],[0,0.25]];outlineConnect=0;gradientColor=none;html=1;whiteSpace=wrap;fontSize=12;fontStyle=0;container=0;pointerEvents=0;collapsible=0;recursiveResize=0;shape=mxgraph.aws4.group;grIcon=mxgraph.aws4.group_security_group;grStroke=0;strokeColor=#248814;fillColor=#E9F3E6;verticalAlign=top;align=left;spacingLeft=30;fontColor=#248814;dashed=0;movable=1;resizable=1;rotatable=1;deletable=1;editable=1;locked=0;connectable=1;rounded=0;" parent="oPyfRD8SSdfk53VI7rpG-62" vertex="1">
          <mxGeometry x="80" y="132" width="170" height="150" as="geometry" />
        </mxCell>
        <mxCell id="oPyfRD8SSdfk53VI7rpG-10" value="" style="rounded=0;whiteSpace=wrap;html=1;strokeColor=#994C00;dashed=1;dashPattern=1 1;glass=0;fillColor=none;movable=1;resizable=1;rotatable=1;deletable=1;editable=1;locked=0;connectable=1;container=0;" parent="oPyfRD8SSdfk53VI7rpG-62" vertex="1">
          <mxGeometry x="160" y="156" width="350" height="100" as="geometry" />
        </mxCell>
        <mxCell id="oPyfRD8SSdfk53VI7rpG-15" value="Private subnet" style="points=[[0,0],[0.25,0],[0.5,0],[0.75,0],[1,0],[1,0.25],[1,0.5],[1,0.75],[1,1],[0.75,1],[0.5,1],[0.25,1],[0,1],[0,0.75],[0,0.5],[0,0.25]];outlineConnect=0;gradientColor=none;html=1;whiteSpace=wrap;fontSize=12;fontStyle=0;container=0;pointerEvents=0;collapsible=0;recursiveResize=0;shape=mxgraph.aws4.group;grIcon=mxgraph.aws4.group_security_group;grStroke=0;strokeColor=#147EBA;fillColor=#E6F2F8;verticalAlign=top;align=left;spacingLeft=30;fontColor=#147EBA;dashed=0;movable=1;resizable=1;rotatable=1;deletable=1;editable=1;locked=0;connectable=1;rounded=0;" parent="oPyfRD8SSdfk53VI7rpG-62" vertex="1">
          <mxGeometry x="80" y="302" width="170" height="200" as="geometry" />
        </mxCell>
        <mxCell id="oPyfRD8SSdfk53VI7rpG-16" value="Private subnet" style="points=[[0,0],[0.25,0],[0.5,0],[0.75,0],[1,0],[1,0.25],[1,0.5],[1,0.75],[1,1],[0.75,1],[0.5,1],[0.25,1],[0,1],[0,0.75],[0,0.5],[0,0.25]];outlineConnect=0;gradientColor=none;html=1;whiteSpace=wrap;fontSize=12;fontStyle=0;container=0;pointerEvents=0;collapsible=0;recursiveResize=0;shape=mxgraph.aws4.group;grIcon=mxgraph.aws4.group_security_group;grStroke=0;strokeColor=#147EBA;fillColor=#E6F2F8;verticalAlign=top;align=left;spacingLeft=30;fontColor=#147EBA;dashed=0;movable=1;resizable=1;rotatable=1;deletable=1;editable=1;locked=0;connectable=1;rounded=0;" parent="oPyfRD8SSdfk53VI7rpG-62" vertex="1">
          <mxGeometry x="430" y="301" width="170" height="201" as="geometry" />
        </mxCell>
        <mxCell id="oPyfRD8SSdfk53VI7rpG-11" value="" style="rounded=0;whiteSpace=wrap;html=1;strokeColor=#994C00;glass=0;movable=1;resizable=1;rotatable=1;deletable=1;editable=1;locked=0;connectable=1;fillColor=none;container=0;" parent="oPyfRD8SSdfk53VI7rpG-62" vertex="1">
          <mxGeometry x="128" y="330" width="390" height="142" as="geometry" />
        </mxCell>
        <mxCell id="oPyfRD8SSdfk53VI7rpG-18" value="" style="rounded=0;whiteSpace=wrap;html=1;fillColor=#000000;movable=1;resizable=1;rotatable=1;deletable=1;editable=1;locked=0;connectable=1;container=0;" parent="oPyfRD8SSdfk53VI7rpG-62" vertex="1">
          <mxGeometry y="2" width="40" height="20" as="geometry" />
        </mxCell>
        <mxCell id="oPyfRD8SSdfk53VI7rpG-17" value="&lt;b&gt;&lt;font color=&quot;#f3f2f2&quot;&gt;Azure&lt;/font&gt;&lt;/b&gt;" style="text;html=1;strokeColor=none;fillColor=none;align=center;verticalAlign=middle;whiteSpace=wrap;rounded=0;movable=1;resizable=1;rotatable=1;deletable=1;editable=1;locked=0;connectable=1;container=0;" parent="oPyfRD8SSdfk53VI7rpG-62" vertex="1">
          <mxGeometry y="2" width="40" height="20" as="geometry" />
        </mxCell>
        <mxCell id="oPyfRD8SSdfk53VI7rpG-20" value="&lt;b&gt;AZURE CLOUD&lt;/b&gt;" style="text;html=1;strokeColor=none;fillColor=none;align=center;verticalAlign=middle;whiteSpace=wrap;rounded=0;movable=1;resizable=1;rotatable=1;deletable=1;editable=1;locked=0;connectable=1;container=0;" parent="oPyfRD8SSdfk53VI7rpG-62" vertex="1">
          <mxGeometry x="32" y="-1" width="120" height="30" as="geometry" />
        </mxCell>
        <mxCell id="oPyfRD8SSdfk53VI7rpG-21" value="&lt;font color=&quot;#66cc00&quot;&gt;10.0.128.0/22&lt;/font&gt;" style="text;html=1;strokeColor=none;fillColor=none;align=center;verticalAlign=middle;whiteSpace=wrap;rounded=0;movable=1;resizable=1;rotatable=1;deletable=1;editable=1;locked=0;connectable=1;container=0;" parent="oPyfRD8SSdfk53VI7rpG-62" vertex="1">
          <mxGeometry x="110" y="258" width="90" height="30" as="geometry" />
        </mxCell>
        <mxCell id="oPyfRD8SSdfk53VI7rpG-25" value="&lt;font color=&quot;#66cc00&quot;&gt;10.0.124.0/19&lt;/font&gt;" style="text;html=1;strokeColor=none;fillColor=none;align=center;verticalAlign=middle;whiteSpace=wrap;rounded=0;movable=1;resizable=1;rotatable=1;deletable=1;editable=1;locked=0;connectable=1;container=0;" parent="oPyfRD8SSdfk53VI7rpG-62" vertex="1">
          <mxGeometry x="300" y="487" width="60" height="30" as="geometry" />
        </mxCell>
        <mxCell id="oPyfRD8SSdfk53VI7rpG-26" value="&lt;font color=&quot;#0000ff&quot;&gt;Availability Zone 1&lt;/font&gt;" style="text;html=1;strokeColor=none;fillColor=none;align=center;verticalAlign=middle;whiteSpace=wrap;rounded=0;movable=1;resizable=1;rotatable=1;deletable=1;editable=1;locked=0;connectable=1;container=0;" parent="oPyfRD8SSdfk53VI7rpG-62" vertex="1">
          <mxGeometry x="85" y="66" width="140" height="30" as="geometry" />
        </mxCell>
        <mxCell id="oPyfRD8SSdfk53VI7rpG-27" value="&lt;font color=&quot;#0000ff&quot;&gt;Availability Zone 2&lt;/font&gt;" style="text;html=1;strokeColor=none;fillColor=none;align=center;verticalAlign=middle;whiteSpace=wrap;rounded=0;movable=1;resizable=1;rotatable=1;deletable=1;editable=1;locked=0;connectable=1;container=0;" parent="oPyfRD8SSdfk53VI7rpG-62" vertex="1">
          <mxGeometry x="445" y="66" width="130" height="30" as="geometry" />
        </mxCell>
        <mxCell id="oPyfRD8SSdfk53VI7rpG-29" value="&lt;font style=&quot;font-size: 8px;&quot; color=&quot;#ff8000&quot;&gt;Virtual Machine scale sets&lt;/font&gt;" style="text;html=1;strokeColor=none;fillColor=none;align=center;verticalAlign=middle;whiteSpace=wrap;rounded=0;movable=1;resizable=1;rotatable=1;deletable=1;editable=1;locked=0;connectable=1;container=0;" parent="oPyfRD8SSdfk53VI7rpG-62" vertex="1">
          <mxGeometry x="277" y="148" width="130" height="30" as="geometry" />
        </mxCell>
        <mxCell id="oPyfRD8SSdfk53VI7rpG-30" value="&lt;font color=&quot;#ff3333&quot;&gt;Network Security Group&lt;/font&gt;" style="text;html=1;strokeColor=none;fillColor=none;align=center;verticalAlign=middle;whiteSpace=wrap;rounded=0;movable=1;resizable=1;rotatable=1;deletable=1;editable=1;locked=0;connectable=1;container=0;" parent="oPyfRD8SSdfk53VI7rpG-62" vertex="1">
          <mxGeometry x="270" y="330" width="130" height="30" as="geometry" />
        </mxCell>
        <mxCell id="oPyfRD8SSdfk53VI7rpG-31" value="" style="shape=cylinder3;whiteSpace=wrap;html=1;boundedLbl=1;backgroundOutline=1;size=15;movable=1;resizable=1;rotatable=1;deletable=1;editable=1;locked=0;connectable=1;container=0;rounded=0;" parent="oPyfRD8SSdfk53VI7rpG-62" vertex="1">
          <mxGeometry x="450" y="348" width="45" height="84" as="geometry" />
        </mxCell>
        <mxCell id="oPyfRD8SSdfk53VI7rpG-32" value="" style="shape=cylinder3;whiteSpace=wrap;html=1;boundedLbl=1;backgroundOutline=1;size=5;movable=1;resizable=1;rotatable=1;deletable=1;editable=1;locked=0;connectable=1;container=0;rounded=0;" parent="oPyfRD8SSdfk53VI7rpG-62" vertex="1">
          <mxGeometry x="137" y="342" width="28" height="40" as="geometry" />
        </mxCell>
        <mxCell id="oPyfRD8SSdfk53VI7rpG-33" value="" style="shape=cylinder3;whiteSpace=wrap;html=1;boundedLbl=1;backgroundOutline=1;size=6.5;movable=1;resizable=1;rotatable=1;deletable=1;editable=1;locked=0;connectable=1;container=0;rounded=0;" parent="oPyfRD8SSdfk53VI7rpG-62" vertex="1">
          <mxGeometry x="138" y="396" width="26" height="46" as="geometry" />
        </mxCell>
        <mxCell id="oPyfRD8SSdfk53VI7rpG-36" value="&lt;b&gt;&lt;font style=&quot;font-size: 18px;&quot;&gt;R&lt;/font&gt;&lt;/b&gt;" style="text;html=1;strokeColor=none;fillColor=none;align=center;verticalAlign=middle;whiteSpace=wrap;rounded=0;movable=1;resizable=1;rotatable=1;deletable=1;editable=1;locked=0;connectable=1;container=0;" parent="oPyfRD8SSdfk53VI7rpG-62" vertex="1">
          <mxGeometry x="121" y="404" width="60" height="30" as="geometry" />
        </mxCell>
        <mxCell id="oPyfRD8SSdfk53VI7rpG-40" value="" style="rounded=0;whiteSpace=wrap;html=1;fillColor=none;strokeColor=#006633;movable=1;resizable=1;rotatable=1;deletable=1;editable=1;locked=0;connectable=1;container=0;" parent="oPyfRD8SSdfk53VI7rpG-62" vertex="1">
          <mxGeometry x="426" y="133" width="170" height="149" as="geometry" />
        </mxCell>
        <mxCell id="oPyfRD8SSdfk53VI7rpG-35" value="&lt;b&gt;&lt;font style=&quot;font-size: 18px;&quot;&gt;R&lt;/font&gt;&lt;/b&gt;" style="text;html=1;strokeColor=none;fillColor=none;align=center;verticalAlign=middle;whiteSpace=wrap;rounded=0;movable=1;resizable=1;rotatable=1;deletable=1;editable=1;locked=0;connectable=1;container=0;" parent="oPyfRD8SSdfk53VI7rpG-62" vertex="1">
          <mxGeometry x="121" y="349.5" width="60" height="32.5" as="geometry" />
        </mxCell>
        <mxCell id="oPyfRD8SSdfk53VI7rpG-37" value="&lt;font style=&quot;font-size: 18px;&quot;&gt;&lt;b&gt;w&lt;/b&gt;&lt;/font&gt;" style="text;html=1;strokeColor=none;fillColor=none;align=center;verticalAlign=middle;whiteSpace=wrap;rounded=0;movable=1;resizable=1;rotatable=1;deletable=1;editable=1;locked=0;connectable=1;container=0;" parent="oPyfRD8SSdfk53VI7rpG-62" vertex="1">
          <mxGeometry x="442.5" y="386" width="60" height="30" as="geometry" />
        </mxCell>
        <mxCell id="oPyfRD8SSdfk53VI7rpG-44" value="" style="image;aspect=fixed;html=1;points=[];align=center;fontSize=12;image=img/lib/azure2/databases/Azure_Database_PostgreSQL_Server.svg;movable=1;resizable=1;rotatable=1;deletable=1;editable=1;locked=0;connectable=1;container=0;rounded=0;" parent="oPyfRD8SSdfk53VI7rpG-62" vertex="1">
          <mxGeometry x="311" y="358" width="48" height="64" as="geometry" />
        </mxCell>
        <mxCell id="oPyfRD8SSdfk53VI7rpG-22" value="&lt;font color=&quot;#66cc00&quot;&gt;10.0.144.0/22&lt;/font&gt;" style="text;html=1;strokeColor=none;fillColor=none;align=center;verticalAlign=middle;whiteSpace=wrap;rounded=0;movable=1;resizable=1;rotatable=1;deletable=1;editable=1;locked=0;connectable=1;container=0;" parent="oPyfRD8SSdfk53VI7rpG-62" vertex="1">
          <mxGeometry x="464" y="257" width="80" height="30" as="geometry" />
        </mxCell>
        <mxCell id="oPyfRD8SSdfk53VI7rpG-39" value="" style="rounded=0;whiteSpace=wrap;html=1;fillColor=none;strokeColor=#006600;movable=1;resizable=1;rotatable=1;deletable=1;editable=1;locked=0;connectable=1;container=0;" parent="oPyfRD8SSdfk53VI7rpG-62" vertex="1">
          <mxGeometry x="81" y="130" width="170" height="150" as="geometry" />
        </mxCell>
        <mxCell id="oPyfRD8SSdfk53VI7rpG-23" value="&lt;font color=&quot;#0000ff&quot;&gt;10.0.0.0/20&lt;/font&gt;" style="text;html=1;strokeColor=none;fillColor=none;align=center;verticalAlign=middle;whiteSpace=wrap;rounded=0;movable=1;resizable=1;rotatable=1;deletable=1;editable=1;locked=0;connectable=1;container=0;" parent="oPyfRD8SSdfk53VI7rpG-62" vertex="1">
          <mxGeometry x="130" y="474" width="60" height="30" as="geometry" />
        </mxCell>
        <mxCell id="oPyfRD8SSdfk53VI7rpG-42" value="" style="rounded=0;whiteSpace=wrap;html=1;fillColor=none;strokeColor=#0000CC;movable=1;resizable=1;rotatable=1;deletable=1;editable=1;locked=0;connectable=1;container=0;" parent="oPyfRD8SSdfk53VI7rpG-62" vertex="1">
          <mxGeometry x="430" y="301" width="170" height="200" as="geometry" />
        </mxCell>
        <mxCell id="oPyfRD8SSdfk53VI7rpG-24" value="&lt;font color=&quot;#0000ff&quot;&gt;10.0.132.0/20&lt;/font&gt;" style="text;html=1;strokeColor=none;fillColor=none;align=center;verticalAlign=middle;whiteSpace=wrap;rounded=0;movable=1;resizable=1;rotatable=1;deletable=1;editable=1;locked=0;connectable=1;container=0;" parent="oPyfRD8SSdfk53VI7rpG-62" vertex="1">
          <mxGeometry x="479" y="472" width="60" height="30" as="geometry" />
        </mxCell>
        <mxCell id="oPyfRD8SSdfk53VI7rpG-63" value="" style="image;aspect=fixed;html=1;points=[];align=center;fontSize=12;image=img/lib/azure2/security/Key_Vaults.svg;rounded=0;" parent="oPyfRD8SSdfk53VI7rpG-62" vertex="1">
          <mxGeometry x="679" y="345" width="68" height="68" as="geometry" />
        </mxCell>
        <mxCell id="oPyfRD8SSdfk53VI7rpG-64" value="" style="image;aspect=fixed;html=1;points=[];align=center;fontSize=12;image=img/lib/azure2/general/Service_Bus.svg;rounded=0;" parent="oPyfRD8SSdfk53VI7rpG-62" vertex="1">
          <mxGeometry x="678" y="72" width="70" height="60" as="geometry" />
        </mxCell>
        <mxCell id="oPyfRD8SSdfk53VI7rpG-65" value="" style="image;aspect=fixed;html=1;points=[];align=center;fontSize=12;image=img/lib/azure2/networking/Bastions.svg;rounded=0;" parent="oPyfRD8SSdfk53VI7rpG-62" vertex="1">
          <mxGeometry x="180" y="164" width="45.12" height="52.89" as="geometry" />
        </mxCell>
        <mxCell id="oPyfRD8SSdfk53VI7rpG-67" value="" style="image;aspect=fixed;html=1;points=[];align=center;fontSize=12;image=img/lib/azure2/compute/VM_Scale_Sets.svg;rounded=0;" parent="oPyfRD8SSdfk53VI7rpG-62" vertex="1">
          <mxGeometry x="316" y="180" width="39" height="39" as="geometry" />
        </mxCell>
        <mxCell id="jHYf1bYWegRdkuKE0e3k-2" value="&lt;font style=&quot;font-size: 10px;&quot;&gt;&lt;b&gt;Azure Bastion&lt;/b&gt;&lt;/font&gt;" style="text;html=1;strokeColor=none;fillColor=none;align=center;verticalAlign=middle;whiteSpace=wrap;rounded=0;" parent="oPyfRD8SSdfk53VI7rpG-62" vertex="1">
          <mxGeometry x="436.5" y="216.89" width="72" height="30" as="geometry" />
        </mxCell>
        <mxCell id="DmmqQ2lElJ5s5PPRRWVF-9" value="" style="rounded=0;whiteSpace=wrap;html=1;fillColor=none;strokeColor=#0000CC;movable=1;resizable=1;rotatable=1;deletable=1;editable=1;locked=0;connectable=1;container=0;" vertex="1" parent="oPyfRD8SSdfk53VI7rpG-62">
          <mxGeometry x="82" y="302" width="170" height="200" as="geometry" />
        </mxCell>
        <mxCell id="jHYf1bYWegRdkuKE0e3k-1" value="&lt;font style=&quot;font-size: 10px;&quot;&gt;&lt;b&gt;Azure Bastion&lt;/b&gt;&lt;/font&gt;" style="text;html=1;strokeColor=none;fillColor=none;align=center;verticalAlign=middle;whiteSpace=wrap;rounded=0;" parent="oPyfRD8SSdfk53VI7rpG-62" vertex="1">
          <mxGeometry x="169" y="219" width="72" height="30" as="geometry" />
        </mxCell>
        <mxCell id="jHYf1bYWegRdkuKE0e3k-3" value="&lt;b&gt;&lt;font style=&quot;font-size: 11px;&quot;&gt;Azure Service Bus&lt;/font&gt;&lt;/b&gt;" style="text;html=1;strokeColor=none;fillColor=none;align=center;verticalAlign=middle;whiteSpace=wrap;rounded=0;" parent="oPyfRD8SSdfk53VI7rpG-62" vertex="1">
          <mxGeometry x="650.5" y="150" width="99.5" height="30" as="geometry" />
        </mxCell>
        <mxCell id="jHYf1bYWegRdkuKE0e3k-4" value="&lt;b&gt;&lt;font style=&quot;font-size: 11px;&quot;&gt;Azure Key Vault&lt;/font&gt;&lt;/b&gt;" style="text;html=1;strokeColor=none;fillColor=none;align=center;verticalAlign=middle;whiteSpace=wrap;rounded=0;" parent="oPyfRD8SSdfk53VI7rpG-62" vertex="1">
          <mxGeometry x="659" y="416" width="98" height="30" as="geometry" />
        </mxCell>
        <mxCell id="jHYf1bYWegRdkuKE0e3k-5" value="" style="image;aspect=fixed;html=1;points=[];align=center;fontSize=12;image=img/lib/azure2/monitor/SAP_Azure_Monitor.svg;rounded=0;" parent="oPyfRD8SSdfk53VI7rpG-62" vertex="1">
          <mxGeometry x="665.25" y="219" width="70" height="56.00000000000001" as="geometry" />
        </mxCell>
        <mxCell id="jHYf1bYWegRdkuKE0e3k-6" value="&lt;font style=&quot;font-size: 11px;&quot;&gt;&lt;b&gt;Monitor&lt;/b&gt;&lt;/font&gt;" style="text;html=1;strokeColor=none;fillColor=none;align=center;verticalAlign=middle;whiteSpace=wrap;rounded=0;" parent="oPyfRD8SSdfk53VI7rpG-62" vertex="1">
          <mxGeometry x="670.25" y="287" width="60" height="30" as="geometry" />
        </mxCell>
        <mxCell id="jHYf1bYWegRdkuKE0e3k-7" value="&lt;font color=&quot;#cc6600&quot;&gt;VM Scale Sets&lt;/font&gt;" style="text;html=1;strokeColor=none;fillColor=none;align=center;verticalAlign=middle;whiteSpace=wrap;rounded=0;" parent="oPyfRD8SSdfk53VI7rpG-62" vertex="1">
          <mxGeometry x="289.5" y="226" width="92" height="30" as="geometry" />
        </mxCell>
        <mxCell id="jHYf1bYWegRdkuKE0e3k-8" value="" style="image;aspect=fixed;html=1;points=[];align=center;fontSize=12;image=img/lib/azure2/networking/Virtual_Networks.svg;rounded=0;" parent="oPyfRD8SSdfk53VI7rpG-62" vertex="1">
          <mxGeometry x="40" y="103" width="28" height="16.72" as="geometry" />
        </mxCell>
        <mxCell id="jHYf1bYWegRdkuKE0e3k-9" value="&lt;b&gt;Virtual Network&lt;/b&gt;" style="text;html=1;strokeColor=none;fillColor=none;align=center;verticalAlign=middle;whiteSpace=wrap;rounded=0;" parent="oPyfRD8SSdfk53VI7rpG-62" vertex="1">
          <mxGeometry x="82" y="96.36000000000001" width="90" height="30" as="geometry" />
        </mxCell>
        <mxCell id="jHYf1bYWegRdkuKE0e3k-10" value="&lt;b&gt;&lt;font color=&quot;#cc6600&quot;&gt;Azure SQL&lt;/font&gt;&lt;/b&gt;" style="text;html=1;strokeColor=none;fillColor=none;align=center;verticalAlign=middle;whiteSpace=wrap;rounded=0;" parent="oPyfRD8SSdfk53VI7rpG-62" vertex="1">
          <mxGeometry x="295.5" y="434" width="80" height="30" as="geometry" />
        </mxCell>
        <mxCell id="jHYf1bYWegRdkuKE0e3k-12" value="" style="image;aspect=fixed;html=1;points=[];align=center;fontSize=12;image=img/lib/azure2/networking/NAT.svg;rounded=0;" parent="oPyfRD8SSdfk53VI7rpG-62" vertex="1">
          <mxGeometry x="525" y="162.59" width="50" height="50" as="geometry" />
        </mxCell>
        <mxCell id="jHYf1bYWegRdkuKE0e3k-13" value="&lt;font style=&quot;font-size: 10px;&quot;&gt;&lt;b style=&quot;&quot;&gt;Virtual Network NAT&lt;/b&gt;&lt;/font&gt;" style="text;html=1;strokeColor=none;fillColor=none;align=center;verticalAlign=middle;whiteSpace=wrap;rounded=0;" parent="oPyfRD8SSdfk53VI7rpG-62" vertex="1">
          <mxGeometry x="85" y="219" width="80" height="30" as="geometry" />
        </mxCell>
        <mxCell id="jHYf1bYWegRdkuKE0e3k-14" value="&lt;font style=&quot;font-size: 10px;&quot;&gt;&lt;b style=&quot;&quot;&gt;Virtual Network NAT&lt;/b&gt;&lt;/font&gt;" style="text;html=1;strokeColor=none;fillColor=none;align=center;verticalAlign=middle;whiteSpace=wrap;rounded=0;" parent="oPyfRD8SSdfk53VI7rpG-62" vertex="1">
          <mxGeometry x="514.5" y="219" width="80" height="30" as="geometry" />
        </mxCell>
        <mxCell id="DmmqQ2lElJ5s5PPRRWVF-1" style="edgeStyle=orthogonalEdgeStyle;rounded=0;orthogonalLoop=1;jettySize=auto;html=1;entryX=0.188;entryY=0.495;entryDx=0;entryDy=0;entryPerimeter=0;exitX=1.083;exitY=0.742;exitDx=0;exitDy=0;exitPerimeter=0;" edge="1" parent="oPyfRD8SSdfk53VI7rpG-62">
          <mxGeometry relative="1" as="geometry">
            <mxPoint x="362.9839999999999" y="393.48800000000006" as="sourcePoint" />
            <mxPoint x="447.96000000000004" y="389" as="targetPoint" />
            <Array as="points">
              <mxPoint x="363" y="389" />
            </Array>
          </mxGeometry>
        </mxCell>
        <mxCell id="DmmqQ2lElJ5s5PPRRWVF-10" style="edgeStyle=orthogonalEdgeStyle;orthogonalLoop=1;jettySize=auto;html=1;entryX=0.529;entryY=0.29;entryDx=0;entryDy=0;entryPerimeter=0;rounded=0;curved=0;" edge="1" parent="oPyfRD8SSdfk53VI7rpG-62">
          <mxGeometry relative="1" as="geometry">
            <mxPoint x="306" y="400" as="sourcePoint" />
            <mxPoint x="166.93000000000006" y="360" as="targetPoint" />
            <Array as="points">
              <mxPoint x="306" y="390" />
              <mxPoint x="212" y="390" />
              <mxPoint x="212" y="360" />
            </Array>
          </mxGeometry>
        </mxCell>
        <mxCell id="DmmqQ2lElJ5s5PPRRWVF-11" style="edgeStyle=orthogonalEdgeStyle;orthogonalLoop=1;jettySize=auto;html=1;rounded=0;curved=0;" edge="1" parent="oPyfRD8SSdfk53VI7rpG-62">
          <mxGeometry relative="1" as="geometry">
            <mxPoint x="318" y="390" as="sourcePoint" />
            <mxPoint x="163" y="420" as="targetPoint" />
            <Array as="points">
              <mxPoint x="212" y="390" />
              <mxPoint x="212" y="420" />
            </Array>
          </mxGeometry>
        </mxCell>
        <mxCell id="oPyfRD8SSdfk53VI7rpG-66" value="" style="image;aspect=fixed;html=1;points=[];align=center;fontSize=12;image=img/lib/azure2/networking/Bastions.svg;rounded=0;" parent="1" vertex="1">
          <mxGeometry x="557" y="225" width="46.91" height="55" as="geometry" />
        </mxCell>
        <mxCell id="jHYf1bYWegRdkuKE0e3k-11" value="" style="image;aspect=fixed;html=1;points=[];align=center;fontSize=12;image=img/lib/azure2/networking/NAT.svg;rounded=0;" parent="1" vertex="1">
          <mxGeometry x="210" y="215" width="50" height="50" as="geometry" />
        </mxCell>
      </root>
    </mxGraphModel>
  </diagram>
</mxfile>
